HIERARCHY
ROOT hip
{
  OFFSET 0 0 0
  CHANNELS 6 Xposition Yposition Zposition Zrotation Yrotation Xrotation
  JOINT abdomen
  {
    OFFSET 0 20.6881 -0.73152
    CHANNELS 3 Zrotation Xrotation Yrotation
    JOINT chest
    {
      OFFSET 0 11.7043 -0.48768
      CHANNELS 3 Zrotation Xrotation Yrotation
      JOINT neck
      {
        OFFSET 0 22.1894 -2.19456
        CHANNELS 3 Zrotation Xrotation Yrotation
        JOINT head
        {
          OFFSET -0.24384 7.07133 1.2192
          CHANNELS 3 Zrotation Xrotation Yrotation
          JOINT leftEye
          {
            OFFSET 4.14528 8.04674 8.04672
            CHANNELS 3 Zrotation Xrotation Yrotation
            End Site
            {
              OFFSET 1 0 0
            }
          }
          JOINT rightEye
          {
            OFFSET -3.6576 8.04674 8.04672
            CHANNELS 3 Zrotation Xrotation Yrotation
            End Site
            {
              OFFSET 1 0 0
            }
          }
        }
      }
      JOINT rCollar
      {
        OFFSET -2.68224 19.2634 -4.8768
        CHANNELS 3 Zrotation Xrotation Yrotation
        JOINT rShldr
        {
          OFFSET -8.77824 -1.95073 1.46304
          CHANNELS 3 Zrotation Xrotation Yrotation
          JOINT rForeArm
          {
            OFFSET -28.1742 -1.7115 0.48768
            CHANNELS 3 Zrotation Xrotation Yrotation
            JOINT rHand
            {
              OFFSET -22.5879 0.773209 7.07136
              CHANNELS 3 Zrotation Xrotation Yrotation
              JOINT rThumb1
              {
                OFFSET -1.2192 -0.487915 3.41376
                CHANNELS 3 Zrotation Xrotation Yrotation
                JOINT rThumb2
                {
                  OFFSET -3.37035 -0.52449 3.41376
                  CHANNELS 3 Zrotation Xrotation Yrotation
                  End Site
                  {
                    OFFSET -1.78271 -1.18214 1.43049
                  }
                }
              }
              JOINT rIndex1
              {
                OFFSET -7.75947 0.938293 5.60832
                CHANNELS 3 Zrotation Xrotation Yrotation
                JOINT rIndex2
                {
                  OFFSET -2.54057 -0.884171 1.56538
                  CHANNELS 3 Zrotation Xrotation Yrotation
                  End Site
                  {
                    OFFSET -1.62519 -0.234802 1.16502
                  }
                }
              }
              JOINT rMid1
              {
                OFFSET -8.24714 1.18213 3.41376
                CHANNELS 3 Zrotation Xrotation Yrotation
                JOINT rMid2
                {
                  OFFSET -3.10165 -0.590103 1.0647
                  CHANNELS 3 Zrotation Xrotation Yrotation
                  End Site
                  {
                    OFFSET -2.48547 -0.328903 0.83742
                  }
                }
              }
              JOINT rRing1
              {
                OFFSET -8.82822 0.546677 1.51678
                CHANNELS 3 Zrotation Xrotation Yrotation
                JOINT rRing2
                {
                  OFFSET -2.60934 -0.819778 -0.0198488
                  CHANNELS 3 Zrotation Xrotation Yrotation
                  End Site
                  {
                    OFFSET -2.33842 -0.294052 0.168128
                  }
                }
              }
              JOINT rPinky1
              {
                OFFSET -8.27202 -0.0477905 -0.4584
                CHANNELS 3 Zrotation Xrotation Yrotation
                JOINT rPinky2
                {
                  OFFSET -1.82734 -0.647385 -0.700984
                  CHANNELS 3 Zrotation Xrotation Yrotation
                  End Site
                  {
                    OFFSET -1.69225 -0.51767 -0.607171
                  }
                }
              }
            }
          }
        }
      }
      JOINT lCollar
      {
        OFFSET 2.68224 19.2634 -4.8768
        CHANNELS 3 Zrotation Xrotation Yrotation
        JOINT lShldr
        {
          OFFSET 8.77824 -1.95073 1.46304
          CHANNELS 3 Zrotation Xrotation Yrotation
          JOINT lForeArm
          {
            OFFSET 28.1742 -1.7115 0.48768
            CHANNELS 3 Zrotation Xrotation Yrotation
            JOINT lHand
            {
              OFFSET 22.5879 0.773209 7.07136
              CHANNELS 3 Zrotation Xrotation Yrotation
              JOINT lThumb1
              {
                OFFSET 1.2192 -0.487915 3.41376
                CHANNELS 3 Zrotation Xrotation Yrotation
                JOINT lThumb2
                {
                  OFFSET 3.37035 -0.52449 3.41376
                  CHANNELS 3 Zrotation Xrotation Yrotation
                  End Site
                  {
                    OFFSET 1.78271 -1.18214 1.43049
                  }
                }
              }
              JOINT lIndex1
              {
                OFFSET 7.75947 0.938293 5.60832
                CHANNELS 3 Zrotation Xrotation Yrotation
                JOINT lIndex2
                {
                  OFFSET 2.54057 -0.884171 1.56538
                  CHANNELS 3 Zrotation Xrotation Yrotation
                  End Site
                  {
                    OFFSET 1.62519 -0.234802 1.16502
                  }
                }
              }
              JOINT lMid1
              {
                OFFSET 8.24714 1.18213 3.41376
                CHANNELS 3 Zrotation Xrotation Yrotation
                JOINT lMid2
                {
                  OFFSET 3.10165 -0.590103 1.0647
                  CHANNELS 3 Zrotation Xrotation Yrotation
                  End Site
                  {
                    OFFSET 2.48547 -0.328903 0.83742
                  }
                }
              }
              JOINT lRing1
              {
                OFFSET 8.82822 0.546677 1.51678
                CHANNELS 3 Zrotation Xrotation Yrotation
                JOINT lRing2
                {
                  OFFSET 2.60934 -0.819778 -0.0198488
                  CHANNELS 3 Zrotation Xrotation Yrotation
                  End Site
                  {
                    OFFSET 2.33842 -0.294052 0.168128
                  }
                }
              }
              JOINT lPinky1
              {
                OFFSET 8.27202 -0.0477905 -0.4584
                CHANNELS 3 Zrotation Xrotation Yrotation
                JOINT lPinky2
                {
                  OFFSET 1.82734 -0.647385 -0.700984
                  CHANNELS 3 Zrotation Xrotation Yrotation
                  End Site
                  {
                    OFFSET 1.69225 -0.51767 -0.607171
                  }
                }
              }
            }
          }
        }
      }
    }
  }
  JOINT rButtock
  {
    OFFSET -8.77824 4.35084 1.2192
    CHANNELS 3 Zrotation Xrotation Yrotation
    JOINT rThigh
    {
      OFFSET 0 -1.70687 -2.19456
      CHANNELS 3 Zrotation Xrotation Yrotation
      JOINT rShin
      {
        OFFSET 0 -36.8199 0.73152
        CHANNELS 3 Zrotation Xrotation Yrotation
        JOINT rFoot
        {
          OFFSET 0.73152 -45.1104 -5.12064
          CHANNELS 3 Zrotation Xrotation Yrotation
          End Site
          {
            OFFSET -1.1221 -3.69964 12.103
          }
        }
      }
    }
  }
  JOINT lButtock
  {
    OFFSET 8.77824 4.35084 1.2192
    CHANNELS 3 Zrotation Xrotation Yrotation
    JOINT lThigh
    {
      OFFSET 0 -1.70687 -2.19456
      CHANNELS 3 Zrotation Xrotation Yrotation
      JOINT lShin
      {
        OFFSET 0 -36.8199 0.73152
        CHANNELS 3 Zrotation Xrotation Yrotation
        JOINT lFoot
        {
          OFFSET -0.73152 -45.1104 -5.12064
          CHANNELS 3 Zrotation Xrotation Yrotation
          End Site
          {
            OFFSET 1.1221 -3.69964 12.103
          }
        }
      }
    }
  }
}
MOTION
Frames:	8
Frame Time:	0.00833333
54.6444 85.1388 121.209 0.0 0.0 0.0 0.41059 -0.00336425 0.0117806 0.113459 -0.00539521 0.0196593 4.46499e-15 0.0 -1.98785e-16 1.34739e-14 3.18055e-15 -5.93248e-16 -0.0 0.0 0.0 -0.0 0.0 0.0 2.33438e-15 -1.59183e-17 9.93923e-17 4.76961e-14 -1.30452e-16 -1.19271e-15 8.1298e-13 -2.5027e-13 -6.67917e-14 9.28277e-12 1.9466e-13 -3.75305e-13 2.18975e-11 -1.23684e-13 -9.47805e-13 3.78017e-11 -2.16278e-13 -1.62606e-12 2.19001e-11 -1.25234e-13 -9.57347e-13 7.73091 5.47488 0.417314 2.18964e-11 -1.24042e-13 -9.41444e-13 2.90554 0.965183 0.102902 2.18992e-11 -1.23843e-13 -9.42239e-13 10.2786 0.731801 0.0259123 2.1887e-11 -1.20464e-13 -9.31903e-13 2.22167 -0.733487 -0.20892 2.13842e-15 -1.59183e-17 -2.98177e-16 4.6158e-14 -1.36664e-16 -2.5842e-15 8.11538e-13 2.31385e-13 -2.54444e-14 9.28508e-12 -2.93282e-13 -4.0075e-13 2.19053e-11 -1.38268e-13 -9.31903e-13 3.78399e-11 -2.41722e-13 -1.62288e-12 2.19009e-11 -1.39149e-13 -9.28722e-13 -7.73091 5.47488 -0.417314 2.19067e-11 -1.38454e-13 -9.41444e-13 -2.90554 0.965183 -0.102902 2.19016e-11 -1.38255e-13 -9.40649e-13 -10.2786 0.731801 -0.0259123 2.19093e-11 -1.37161e-13 -9.57347e-13 -2.22167 -0.733487 0.20892 -2.03217e-16 0.0 -3.88251e-19 0.770603 -4.17183 -0.0656815 -0.00265486 2.00555 -0.0182702 -0.461828 2.16687 0.0961007 2.03217e-16 0.0 3.88251e-19 -0.143236 -2.55995 0.0260685 0.00716322 -0.914091 0.062172 0.453775 3.47457 -0.121225
55.2866 83.5031 115.656 179.764 -2.2483 -152.835 -0.931177 -9.93747 -0.675517 0.83099 3.47965 -0.383135 -1.23868 4.25766 0.0171771 2.78047 -5.79989 0.389292 -0.0 0.0 0.0 -0.0 0.0 0.0 -1.60555e-14 -8.96066e-14 2.15577e-14 23.4092 1.66004 -0.233896 -3.60464 -1.53208 5.73971 0.00207195 1.01038 0.141919 1.76521e-10 -3.80803e-10 1.43515e-09 3.11027e-10 -6.60473e-10 2.48112e-09 1.76523e-10 -3.80804e-10 1.43514e-09 7.73091 5.47488 0.417314 1.7652e-10 -3.80804e-10 1.43516e-09 2.90554 0.965183 0.102902 1.76523e-10 -3.80804e-10 1.43516e-09 10.2786 0.731801 0.0259123 1.76514e-10 -3.80801e-10 1.43517e-09 2.22167 -0.733487 -0.20892 -1.61906e-14 -8.96083e-14 2.12315e-14 -21.9885 6.05783 -1.3035 2.29597 -0.827389 -3.78633 -0.00875681 2.09454 -0.293683 9.07244e-10 -2.78327e-10 -1.12692e-09 1.56011e-09 -4.86775e-10 -1.95428e-09 9.0724e-10 -2.78327e-10 -1.12692e-09 -7.73091 5.47488 -0.417314 9.07246e-10 -2.78326e-10 -1.12693e-09 -2.90554 0.965183 -0.102902 9.07239e-10 -2.78325e-10 -1.12693e-09 -10.2786 0.731801 -0.0259123 9.07248e-10 -2.78324e-10 -1.12694e-09 -2.22167 -0.733487 0.20892 -2.03217e-16 0.0 -3.88251e-19 0.277872 -11.0645 2.51037 0.00197391 3.91552 0.0387044 -0.633554 -2.97033 -1.91537 2.03217e-16 0.0 3.88251e-19 0.605852 -9.53344 -2.79281 0.00566807 1.13364 0.0234337 0.477477 1.35217 0.528682
55.2893 83.3672 115.913 179.739 -2.2057 -151.926 -2.6213 -20.4455 -1.46672 1.65007 7.16134 -0.813463 -2.55467 8.75463 0.0383595 5.81325 -11.9297 0.821296 -0.0 0.0 0.0 -0.0 0.0 0.0 -3.66494e-14 -1.88304e-13 4.48228e-14 48.1625 3.42491 -0.483709 -7.08491 -3.10148 11.823 -0.00118052 2.07423 0.2915 3.53552e-10 -7.99525e-10 3.01807e-09 6.23587e-10 -1.3867e-09 5.21767e-09 3.53552e-10 -7.99525e-10 3.01806e-09 7.73091 5.47488 0.417314 3.53552e-10 -7.99526e-10 3.01808e-09 2.90554 0.965183 0.102902 3.53555e-10 -7.99527e-10 3.01807e-09 10.2786 0.731801 0.0259123 3.53549e-10 -7.99525e-10 3.01808e-09 2.22167 -0.733487 -0.20892 -3.6717e-14 -1.88307e-13 4.45744e-14 -44.9271 12.4743 -2.72739 4.60364 -1.68958 -7.79009 0.00542439 4.27642 -0.600953 1.88821e-09 -5.77569e-10 -2.36279e-09 3.24691e-09 -1.01026e-09 -4.09755e-09 1.88821e-09 -5.77569e-10 -2.36279e-09 -7.73091 5.47488 -0.417314 1.88821e-09 -5.77567e-10 -2.3628e-09 -2.90554 0.965183 -0.102902 1.88821e-09 -5.77567e-10 -2.36279e-09 -10.2786 0.731801 -0.0259123 1.88822e-09 -5.77565e-10 -2.3628e-09 -2.22167 -0.733487 0.20892 -2.03217e-16 0.0 -3.88251e-19 0.468915 -18.3105 5.42178 0.0026974 5.94054 0.0993791 -1.2111 -8.38478 -4.08208 2.03217e-16 0.0 3.88251e-19 0.628556 -16.8512 -5.94454 0.00706063 3.29739 -0.0175295 0.555173 -0.89056 1.21959
55.3121 83.2341 116.106 179.821 -2.0395 -151.188 -4.42163 -29.7873 -2.32734 2.41513 10.4477 -1.20661 -3.72387 12.773 0.0526931 8.58747 -17.3964 1.2176 -0.0 0.0 0.0 -0.0 0.0 0.0 -5.28353e-14 -2.68788e-13 6.44742e-14 70.2683 4.9798 -0.704052 -9.90616 -4.41208 17.2657 -0.00881789 3.03105 0.426288 4.85768e-10 -1.14216e-09 4.30736e-09 8.57477e-10 -1.98099e-09 7.44661e-09 4.85768e-10 -1.14216e-09 4.30734e-09 7.73091 5.47488 0.417314 4.85768e-10 -1.14216e-09 4.30736e-09 2.90554 0.965183 0.102902 4.85771e-10 -1.14216e-09 4.30736e-09 10.2786 0.731801 0.0259123 4.85768e-10 -1.14216e-09 4.30736e-09 2.22167 -0.733487 -0.20892 -5.28486e-14 -2.68793e-13 6.42909e-14 -65.1024 18.1349 -4.09227 6.56199 -2.43885 -11.3682 0.0384748 6.28297 -0.885781 2.67792e-09 -8.34703e-10 -3.37891e-09 4.60466e-09 -1.45984e-09 -5.85958e-09 2.67792e-09 -8.34703e-10 -3.37891e-09 -7.73091 5.47488 -0.417314 2.67792e-09 -8.34701e-10 -3.37892e-09 -2.90554 0.965183 -0.102902 2.67791e-09 -8.347e-10 -3.37891e-09 -10.2786 0.731801 -0.0259123 2.67792e-09 -8.34699e-10 -3.37891e-09 -2.22167 -0.733487 0.20892 -2.03217e-16 0.0 -3.88251e-19 1.31096 -24.6526 8.28147 -0.000256809 7.73543 0.153759 -2.08004 -13.1775 -6.09143 2.03217e-16 0.0 3.88251e-19 -0.105198 -23.252 -9.05567 0.0109981 5.22911 -0.0542666 0.669328 -2.89102 1.82994
55.2956 83.2507 116.098 179.803 -2.0255 -151.298 -5.91355 -36.23 -3.10756 2.93956 12.7477 -1.48983 -4.51851 15.5947 0.0483811 10.5311 -21.2088 1.47539 -0.0 0.0 0.0 -0.0 0.0 0.0 -5.80013e-14 -3.0374e-13 7.50909e-14 85.7255 6.01005 -0.848363 -11.7163 -5.25172 21.0622 -0.0170058 3.72039 0.523609 5.05947e-10 -1.29458e-09 4.86255e-09 8.94693e-10 -2.24539e-09 8.40653e-09 5.05949e-10 -1.29458e-09 4.86253e-09 7.73091 5.47488 0.417314 5.05947e-10 -1.29459e-09 4.86255e-09 2.90554 0.965183 0.102902 5.05951e-10 -1.29459e-09 4.86255e-09 10.2786 0.731801 0.0259123 5.05949e-10 -1.29459e-09 4.86255e-09 2.22167 -0.733487 -0.20892 -5.79934e-14 -3.03745e-13 7.49418e-14 -78.9936 21.942 -5.13468 7.87563 -2.94691 -13.8735 0.0762138 7.85174 -1.11052 2.98948e-09 -9.86567e-10 -3.84568e-09 5.13981e-09 -1.7247e-09 -6.66852e-09 2.98948e-09 -9.86567e-10 -3.84568e-09 -7.73091 5.47488 -0.417314 2.98949e-09 -9.86564e-10 -3.84568e-09 -2.90554 0.965183 -0.102902 2.98947e-09 -9.86563e-10 -3.84567e-09 -10.2786 0.731801 -0.0259123 2.98949e-09 -9.86562e-10 -3.84567e-09 -2.22167 -0.733487 0.20892 -2.03217e-16 0.0 -3.88251e-19 2.28247 -28.9214 10.4439 -0.0041744 8.95499 0.191416 -2.88913 -16.4826 -7.5508 2.03217e-16 0.0 3.88251e-19 -1.12052 -27.572 -11.491 0.0154345 6.5808 -0.0801355 0.771299 -4.28785 2.2352
55.2681 83.2619 116.074 179.723 -2.1141 -151.367 -6.63342 -38.6037 -3.56453 3.06611 13.6744 -1.60753 -4.78038 16.7466 0.0158203 11.2202 -22.7019 1.4978 -0.0 0.0 0.0 -0.0 0.0 0.0 -4.7635e-14 -2.79701e-13 7.20855e-14 91.8766 6.29093 -0.878441 -12.3781 -5.55171 22.5225 -0.021376 4.04149 0.569009 3.47725e-10 -1.21589e-09 4.41064e-09 6.19438e-10 -2.10891e-09 7.62545e-09 3.47732e-10 -1.21589e-09 4.41062e-09 7.73091 5.47488 0.417314 3.47725e-10 -1.21589e-09 4.41064e-09 2.90554 0.965183 0.102902 3.4773e-10 -1.21589e-09 4.41064e-09 10.2786 0.731801 0.0259123 3.47726e-10 -1.21589e-09 4.41064e-09 2.22167 -0.733487 -0.20892 -4.76559e-14 -2.79702e-13 7.19236e-14 -84.3864 23.1328 -5.60508 8.38475 -3.14512 -14.8686 0.102285 8.84167 -1.25319 2.63699e-09 -1.00989e-09 -3.58977e-09 4.5319e-09 -1.76394e-09 -6.2235e-09 2.63699e-09 -1.00989e-09 -3.58977e-09 -7.73091 5.47488 -0.417314 2.637e-09 -1.00989e-09 -3.58977e-09 -2.90554 0.965183 -0.102902 2.63699e-09 -1.00989e-09 -3.58977e-09 -10.2786 0.731801 -0.0259123 2.637e-09 -1.00989e-09 -3.58977e-09 -2.22167 -0.733487 0.20892 -2.03217e-16 0.0 -3.88251e-19 2.64365 -30.3896 11.2039 -0.00577753 9.35367 0.204792 -3.24422 -17.7534 -8.1225 2.03217e-16 0.0 3.88251e-19 -1.72193 -29.113 -12.5669 0.0179458 7.12102 -0.0905222 0.80903 -4.84097 2.33912
55.2247 83.3212 115.965 179.563 -2.4164 -151.827 -6.68321 -38.0777 -3.70321 2.8972 13.6203 -1.60328 -4.66223 16.7056 -0.0368489 10.9953 -22.539 1.3428 -0.0 0.0 0.0 -0.0 0.0 0.0 -2.61791e-14 -2.13297e-13 5.93962e-14 91.3776 6.0373 -0.826868 -12.2787 -5.50055 22.3073 -0.0218414 4.0993 0.577171 6.30998e-11 -9.70435e-10 3.23839e-09 1.22756e-10 -1.68318e-09 5.5991e-09 6.31154e-11 -9.70439e-10 3.23837e-09 7.73091 5.47488 0.417314 6.30996e-11 -9.70436e-10 3.23839e-09 2.90554 0.965183 0.102902 6.31049e-11 -9.70436e-10 3.23839e-09 10.2786 0.731801 0.0259123 6.30979e-11 -9.70435e-10 3.23839e-09 2.22167 -0.733487 -0.20892 -2.62645e-14 -2.13293e-13 5.91881e-14 -83.7867 22.4656 -5.62801 8.3422 -3.13035 -14.7834 0.115017 9.41665 -1.33607 1.80993e-09 -9.40502e-10 -2.81546e-09 3.10712e-09 -1.64045e-09 -4.87896e-09 1.80992e-09 -9.40503e-10 -2.81546e-09 -7.73091 5.47488 -0.417314 1.80993e-09 -9.40501e-10 -2.81546e-09 -2.90554 0.965183 -0.102902 1.80992e-09 -9.40501e-10 -2.81546e-09 -10.2786 0.731801 -0.0259123 1.80993e-09 -9.40499e-10 -2.81546e-09 -2.22167 -0.733487 0.20892 -2.03217e-16 0.0 -3.88251e-19 2.384 -29.8975 10.8492 -0.00492545 9.16675 0.200675 -3.18532 -17.586 -8.02349 2.03217e-16 0.0 3.88251e-19 -1.81152 -28.7206 -12.5446 0.0184604 7.08159 -0.08976 0.79105 -4.79191 2.22693
55.1986 83.3443 115.951 179.478 -2.5997 -151.975 -6.43071 -36.4319 -3.68114 2.62972 13.164 -1.54919 -4.40165 16.1786 -0.0953665 10.4143 -21.7227 1.12685 -0.0 0.0 0.0 -0.0 0.0 0.0 -4.54514e-16 -1.22345e-13 4.43915e-14 88.1952 5.59404 -0.752652 -11.877 -5.31043 21.4284 -0.0205193 4.04185 0.569019 -2.37608e-10 -6.01984e-10 1.745e-09 -4.03091e-10 -1.04426e-09 3.01764e-09 -2.37585e-10 -6.01991e-10 1.74499e-09 7.73091 5.47488 0.417314 -2.37608e-10 -6.01985e-10 1.745e-09 2.90554 0.965183 0.102902 -2.37602e-10 -6.01985e-10 1.745e-09 10.2786 0.731801 0.0259123 -2.37613e-10 -6.01982e-10 1.74501e-09 2.22167 -0.733487 -0.20892 -6.12495e-16 -1.22334e-13 4.41294e-14 -80.8018 21.1338 -5.45771 8.08135 -3.03161 -14.2699 0.120303 9.77186 -1.38711 7.84458e-10 -8.03889e-10 -1.75951e-09 1.34184e-09 -1.39905e-09 -3.04602e-09 7.84453e-10 -8.0389e-10 -1.7595e-09 -7.73091 5.47488 -0.417314 7.8446e-10 -8.03889e-10 -1.7595e-09 -2.90554 0.965183 -0.102902 7.84453e-10 -8.03889e-10 -1.7595e-09 -10.2786 0.731801 -0.0259123 7.8446e-10 -8.03886e-10 -1.75951e-09 -2.22167 -0.733487 0.20892 -2.03217e-16 0.0 -3.88251e-19 1.93149 -28.6729 10.0916 -0.00314336 8.77028 0.189963 -2.96158 -16.8457 -7.6514 2.03217e-16 0.0 3.88251e-19 -1.67174 -27.5955 -12.0752 0.0181681 6.80938 -0.0845167 0.754064 -4.50239 2.04432
